<svg xmlns="http://www.w3.org/2000/svg" xmlns:xlink="http://www.w3.org/1999/xlink" width="220.784" height="53.236" viewBox="0 0 220.784 53.236">
  <defs>
    <linearGradient id="linear-gradient" x1="0.5" y1="0.06" x2="0.5" y2="1.015" gradientUnits="objectBoundingBox">
      <stop offset="0" stop-color="#fff"/>
      <stop offset="0.99" stop-color="#fff"/>
      <stop offset="1" stop-color="#f96e46"/>
    </linearGradient>
  </defs>
  <g id="Grupo_7" data-name="Grupo 7" transform="translate(1556.685 -326.57)">
    <path id="Caminho_1" data-name="Caminho 1" d="M120.905,671.994a26.862,26.862,0,0,0-27.1,26.618,26.369,26.369,0,0,0,9.508,20.248c-.177-2.639-1.038-16.109-.351-20.917.622-4.349,4.786-18.7,20.8-17.172,4.006.383-9.161-.192-12.02,15.838-.987,5.538-.618,23.972-.553,26.86h.007a34.621,34.621,0,0,0,9.7,1.757,26.622,26.622,0,1,0,0-53.236Zm-.954,44.079V697.946c0-6.106,7.715-12.9,16.029-6.869C143.612,696.613,136.935,717.41,119.951,716.073Z" transform="translate(-1650.495 -345.42)" fill="url(#linear-gradient)"/>
    <g id="Grupo_6" data-name="Grupo 6" transform="translate(-1494.037 339.06)">
      <g id="Grupo_5" data-name="Grupo 5">
        <path id="Caminho_3" data-name="Caminho 3" d="M279.644,725.3c-2.177,0-3.2-1.5-3.2-4.55V701.322c0-3.124.87-4.512,4.432-4.512h5.778c6.449,0,10.287,3.76,10.287,9.574s-3.562,9.535-9.772,9.535h-4.313v4.828c0,3.047-1.03,4.55-3.2,4.55Zm5.973-15.195c2.929,0,4.393-1.266,4.393-3.719s-1.423-3.68-4.393-3.68h-2.769v7.4Z" transform="translate(-276.44 -694.757)" fill="url(#linear-gradient)"/>
        <path id="Caminho_4" data-name="Caminho 4" d="M353.446,724.332c0-3.047.988-4.512,3.124-4.512s3.086,1.464,3.086,4.512v7.041c0,2.929.672,4.55,3.2,4.55s3.2-1.621,3.2-4.55v-7.041c0-3.047.988-4.512,3.124-4.512s3.086,1.464,3.086,4.512v8.307c0,5.973-3.364,9.139-9.417,9.139s-9.417-3.166-9.417-9.139v-8.307Z" transform="translate(-330.66 -710.959)" fill="url(#linear-gradient)"/>
        <path id="Caminho_5" data-name="Caminho 5" d="M440.046,698.337c5.222,0,9.574,4.63,9.574,11.2,0,6.133-4.47,10.92-9.574,10.92a6.6,6.6,0,0,1-5.065-2.136,3.426,3.426,0,0,1-2.967,2.018c-2.136,0-3.124-1.5-3.124-4.55V694.42c0-3.047.988-4.55,3.124-4.55s3.127,1.5,3.127,4.55v5.7A7.2,7.2,0,0,1,440.046,698.337Zm-.911,16.3c2.334,0,4.115-2.056,4.115-5.222s-1.781-5.3-4.115-5.3-4.115,2.018-4.115,5.3S436.8,714.638,439.135,714.638Z" transform="translate(-383.788 -689.87)" fill="url(#linear-gradient)"/>
        <path id="Caminho_6" data-name="Caminho 6" d="M510.784,689.87c2.1,0,3.086,1.5,3.086,4.55v21.366c0,3.047-.95,4.55-3.086,4.55s-3.124-1.5-3.124-4.55V694.42C507.66,691.373,508.648,689.87,510.784,689.87Z" transform="translate(-439.254 -689.87)" fill="url(#linear-gradient)"/>
        <path id="Caminho_7" data-name="Caminho 7" d="M544.02,689.87a3.6,3.6,0,1,1-3.6,3.6A3.58,3.58,0,0,1,544.02,689.87Zm0,30.466c-2.136,0-3.124-1.5-3.124-4.55V703.245c0-3.047.988-4.512,3.124-4.512s3.086,1.464,3.086,4.512v12.541C547.106,718.833,546.157,720.336,544.02,720.336Z" transform="translate(-462.322 -689.87)" fill="url(#linear-gradient)"/>
        <path id="Caminho_8" data-name="Caminho 8" d="M595.229,719.907a2.839,2.839,0,0,1,2.929,3.047,6.377,6.377,0,0,1-.473,2.056L592.9,738.622c-.751,2.1-1.7,3.047-3.562,3.047s-3.2-1.186-3.757-3.245l-2.571-9.932-2.414,10.13a3.6,3.6,0,0,1-3.562,3.047c-1.979,0-2.929-.95-3.76-3.245l-4.946-13.807a5.243,5.243,0,0,1-.355-1.7,3,3,0,0,1,3.006-3.086c1.583,0,2.612.988,3.2,3.047l3.284,11.4,2.651-11.434c.435-1.82,1.464-2.811,2.887-2.811,1.583,0,2.689.988,3.166,2.888l2.849,11.2,3.284-11.633c.473-1.663,1.5-2.571,2.929-2.571Z" transform="translate(-481.722 -710.966)" fill="url(#linear-gradient)"/>
        <path id="Caminho_9" data-name="Caminho 9" d="M679.865,741.058c-5.1,0-9.455-4.47-9.455-11S674.8,719.02,680.1,719.02a6.066,6.066,0,0,1,4.985,2.216,3.366,3.366,0,0,1,2.967-1.979c2.136,0,3.086,1.464,3.086,4.512v12.541c0,3.047-.988,4.55-3.086,4.55a3.058,3.058,0,0,1-2.967-2.177,6.539,6.539,0,0,1-5.222,2.373Zm1.03-5.973c2.3,0,4-2.018,4-5.1s-1.74-4.985-4-4.985-4.035,1.9-4.035,4.985S678.6,735.085,680.895,735.085Z" transform="translate(-553.855 -710.396)" fill="url(#linear-gradient)"/>
        <path id="Caminho_10" data-name="Caminho 10" d="M761.731,719.82a2.817,2.817,0,0,1,3.086,2.967,6.166,6.166,0,0,1-.515,2.177l-9.5,22.552c-.672,1.583-1.346,2.532-2.731,2.532a2.827,2.827,0,0,1-3.086-3.006,4.935,4.935,0,0,1,.515-2.136l2.571-5.58-6.29-14.68a4.14,4.14,0,0,1-.355-1.74,3.033,3.033,0,0,1,3.047-3.086c1.7,0,2.453,1.068,3.166,3.006l3.521,9.417L759,722.314C759.634,720.613,760.465,719.82,761.731,719.82Z" transform="translate(-606.681 -710.959)" fill="url(#linear-gradient)"/>
      </g>
    </g>
  </g>
</svg>
